<svg version="1.1" id="Layer_1" xmlns="http://www.w3.org/2000/svg" xmlns:xlink="http://www.w3.org/1999/xlink" x="0px" y="0px"
	 width="100%" viewBox="0 0 1024 1024" enable-background="new 0 0 1024 1024" xml:space="preserve">
<path fill="#000000" opacity="1.000000" stroke="none" 
	d="
M513.729126,436.485382 
	C508.592255,436.707275 504.880096,438.652374 503.535004,443.460327 
	C502.197357,448.241699 503.465515,452.408051 507.712128,455.301483 
	C509.614685,456.597839 510.113251,458.388245 510.115875,460.470947 
	C510.152161,488.961395 510.185211,517.451843 510.191742,545.942261 
	C510.191895,546.535278 509.866821,547.128479 509.674347,547.787292 
	C507.505768,547.126343 507.960449,545.402039 507.694061,544.035217 
	C501.597168,512.754456 487.535278,486.059540 462.537292,465.676544 
	C461.251984,464.628510 459.840729,463.719025 458.422028,462.853363 
	C452.497894,459.238556 452.538696,459.289093 456.384033,453.837830 
	C470.440826,433.910461 479.146454,411.733093 483.569946,387.864777 
	C484.389832,383.440887 485.915955,381.633698 490.615112,381.710510 
	C505.772888,381.958282 520.938232,381.876434 536.098694,381.723877 
	C539.713379,381.687500 541.590027,382.777069 542.227966,386.517090 
	C546.549438,411.852997 555.850403,435.147736 571.072876,455.973236 
	C571.742126,456.888855 572.617126,457.766937 572.439087,459.290253 
	C540.304199,480.024353 524.701416,511.386810 517.228149,547.849182 
	C515.319214,546.919312 515.816895,545.606567 515.816467,544.569519 
	C515.805786,517.078369 515.819031,489.587158 515.877930,462.096100 
	C515.883118,459.673615 515.701111,457.345856 518.011414,455.307648 
	C526.024170,448.238464 524.188354,439.859772 513.729126,436.485382 
z"/>
<path fill="#000000" opacity="1.000000" stroke="none" 
	d="
M464.458862,362.539795 
	C456.426636,360.320251 448.771729,358.225525 441.116577,356.130768 
	C441.471130,353.612854 443.280060,353.864319 444.577393,353.509033 
	C466.239319,347.575928 487.915039,341.693054 509.574677,335.751678 
	C511.742096,335.157135 513.823730,335.172760 515.956360,335.748505 
	C538.281860,341.775726 560.609558,347.795197 582.934021,353.826263 
	C583.727478,354.040619 584.551941,354.270477 585.000122,355.494965 
	C583.781677,356.802917 581.975403,356.929535 580.299866,357.376465 
	C569.047241,360.378174 557.831604,363.525940 546.534973,366.350739 
	C542.670532,367.317078 540.663452,369.031311 541.303833,373.194031 
	C541.900635,377.073212 540.213745,378.433899 536.261169,378.388519 
	C520.773804,378.210754 505.282471,378.220551 489.794739,378.373657 
	C485.918640,378.412018 484.440857,377.154938 484.577789,373.196686 
	C484.743042,368.418304 478.852417,364.275055 474.173523,365.436340 
	C471.958801,365.986053 471.463928,367.450256 471.339417,369.496338 
	C470.912476,376.512421 472.020630,383.359375 473.440674,390.172058 
	C473.809998,391.943970 474.757080,393.615601 474.006470,395.714783 
	C471.047943,396.836578 467.998016,396.241516 464.251099,395.937256 
	C465.222809,390.771484 466.020142,385.994995 467.037842,381.265900 
	C468.175415,375.979614 467.523926,370.673981 467.450592,365.376526 
	C467.429718,363.868164 466.126190,363.171387 464.458862,362.539795 
z"/>
<path fill="#000000" opacity="1.000000" stroke="none" 
	d="
M325.349182,703.749268 
	C326.297363,706.413452 327.151154,708.703430 328.004944,710.993408 
	C328.272644,710.952942 328.540344,710.912476 328.808044,710.871948 
	C328.808044,700.130493 328.764465,689.388672 328.846649,678.647766 
	C328.862183,676.619202 328.030823,673.591064 330.761261,673.070251 
	C334.600616,672.337952 338.722015,671.827087 342.486145,673.549500 
	C343.752777,674.129089 343.318604,675.968201 343.319885,677.264709 
	C343.341461,698.929871 343.274200,720.595337 343.390259,742.259888 
	C343.409363,745.826050 341.898315,746.803345 338.647156,746.963623 
	C327.207397,747.527527 327.243561,747.595154 323.585846,736.731201 
	C319.285217,723.957886 314.921326,711.205811 309.363831,698.493347 
	C309.363831,701.616760 309.366882,704.740173 309.363281,707.863586 
	C309.350311,719.029480 309.193146,730.197876 309.395447,741.359863 
	C309.469086,745.422180 308.178650,747.333435 304.014282,746.940491 
	C303.023224,746.846985 302.006561,746.839111 301.017395,746.942261 
	C296.305603,747.433655 294.631409,745.515564 294.684540,740.655457 
	C294.910431,719.992676 294.870514,699.325317 294.711090,678.661316 
	C294.676910,674.228882 295.939026,672.529663 300.658936,672.565125 
	C314.908569,672.672241 314.897064,672.489136 319.336578,685.871521 
	C321.275818,691.717163 323.280090,697.541260 325.349182,703.749268 
z"/>
<path fill="#000000" opacity="1.000000" stroke="none" 
	d="
M402.954529,546.040649 
	C426.792969,566.558777 453.976440,579.018555 484.677460,583.858765 
	C485.662445,584.014038 486.622223,584.328613 487.607117,584.484802 
	C489.604614,584.801514 491.265167,585.501221 490.923218,587.930725 
	C490.542603,590.635437 488.514862,590.142151 486.677460,589.892151 
	C471.083923,587.770447 455.955017,583.846924 441.629517,577.321167 
	C390.459320,554.011292 357.878326,514.758179 345.491577,460.178802 
	C333.664490,408.065521 345.653931,360.507843 378.516754,318.328003 
	C380.460938,315.832611 381.364471,313.635773 381.010345,310.261169 
	C379.658569,297.378845 390.902771,284.973022 403.546173,284.602142 
	C407.078918,284.498505 408.673187,285.815704 409.291718,289.218719 
	C411.701263,302.475983 403.923645,314.623138 390.400726,317.704620 
	C386.647705,318.559845 384.170990,320.384460 381.975464,323.227997 
	C356.365997,356.395935 344.374207,393.969269 347.548950,435.693054 
	C350.894592,479.662445 369.607666,516.462585 402.954529,546.040649 
z"/>
<path fill="#000000" opacity="1.000000" stroke="none" 
	d="
M668.157471,365.792297 
	C662.039429,350.114105 654.066589,335.958679 643.800171,323.074280 
	C641.506409,320.195557 639.016113,318.502228 635.349304,317.634735 
	C622.017090,314.480621 614.072998,301.876892 616.675049,288.948608 
	C617.326050,285.713989 618.851379,284.557709 622.116211,284.603271 
	C634.870667,284.781342 646.539612,297.751495 644.878235,310.525696 
	C644.487915,313.527008 645.158447,315.545868 646.958313,317.744446 
	C664.610413,339.307770 676.167480,363.827515 681.317322,391.168182 
	C689.739502,435.881531 682.086426,477.761871 656.934937,515.814026 
	C629.332764,557.573914 590.266663,581.901672 540.828552,589.577454 
	C538.765503,589.897705 535.781555,591.648010 535.181152,587.932678 
	C534.568787,584.143738 538.075134,584.337769 540.304565,584.027100 
	C555.610718,581.894409 570.227295,577.418213 584.186340,570.928040 
	C623.970520,552.430725 651.763062,522.525757 668.006348,481.863190 
	C676.799683,459.850372 679.981628,436.851715 678.575806,413.306274 
	C677.609497,397.122467 674.187439,381.332855 668.157471,365.792297 
z"/>
<path fill="#000000" opacity="1.000000" stroke="none" 
	d="
M553.687744,724.403503 
	C553.896362,719.797363 552.370483,716.840942 548.103333,715.683105 
	C542.008850,714.029480 540.219788,715.342407 540.210205,721.578552 
	C540.199768,728.408508 540.101624,735.240601 540.245605,742.067505 
	C540.317688,745.486450 538.861145,746.736816 535.550537,746.965881 
	C524.043152,747.762390 523.739868,747.558289 523.743347,736.188171 
	C523.749329,717.030945 523.851562,697.872803 523.680725,678.717163 
	C523.641479,674.309875 524.794434,672.342041 529.569397,672.591187 
	C536.214783,672.937927 542.898499,672.491272 549.553284,672.731506 
	C557.444824,673.016357 565.088135,674.327942 568.497803,682.882568 
	C572.136108,692.010620 569.511353,702.400635 562.006042,708.917175 
	C569.268982,712.868530 570.022034,719.754028 570.092285,726.888123 
	C570.154236,733.187500 570.105225,739.487976 570.105225,746.273315 
	C566.164307,747.626282 561.697144,747.044128 557.307739,746.635254 
	C554.291382,746.354248 553.920715,743.689697 553.849792,741.343445 
	C553.683594,735.850708 553.730530,730.351440 553.687744,724.403503 
M552.807678,700.037170 
	C554.305847,696.877625 553.744995,693.507385 553.554138,690.256592 
	C553.277100,685.537048 550.312134,683.992188 544.109009,684.144775 
	C539.171936,684.266296 540.321045,687.684875 540.197510,690.459473 
	C540.094604,692.770386 540.190125,695.090332 540.200928,697.406250 
	C540.230164,703.691284 542.295654,705.229492 548.408997,703.477844 
	C550.035034,703.012024 551.438843,702.166321 552.807678,700.037170 
z"/>
<path fill="#000000" opacity="1.000000" stroke="none" 
	d="
M251.987640,747.729492 
	C249.737000,747.586426 247.911606,747.452820 246.088028,747.297913 
	C235.529892,746.401062 228.879150,739.541992 228.792984,728.979309 
	C228.654465,712.001770 228.846954,695.021545 228.687347,678.044373 
	C228.648514,673.912170 230.117615,672.517273 234.207962,672.607910 
	C246.707001,672.885071 245.108368,671.369263 245.179794,683.535645 
	C245.266769,698.349854 245.184387,713.164917 245.232346,727.979492 
	C245.251892,734.012573 247.057068,736.121216 252.032532,736.252441 
	C257.027008,736.384155 259.516815,733.791992 259.549377,727.856750 
	C259.638031,711.710938 259.571838,695.564270 259.582886,679.417969 
	C259.587494,672.711853 259.605804,672.683960 266.089355,672.675842 
	C276.159119,672.663330 275.195251,672.016479 275.206146,681.857544 
	C275.221985,696.172791 275.221344,710.488098 275.212494,724.803345 
	C275.202881,740.339111 269.840912,746.180603 254.399643,747.516052 
	C253.736496,747.573425 253.075638,747.657471 251.987640,747.729492 
z"/>
<path fill="#000000" opacity="1.000000" stroke="none" 
	d="
M621.304688,694.085938 
	C618.162720,693.983398 617.637146,692.254517 617.642334,690.000793 
	C617.649597,686.863892 616.403442,684.354126 613.213257,683.562439 
	C610.259094,682.829346 607.107727,682.652222 604.888245,685.322266 
	C602.552307,688.132446 603.100586,691.212280 604.722534,694.195129 
	C606.777222,697.973877 610.118835,700.467590 613.510681,702.900635 
	C617.969299,706.098999 622.717957,708.919861 626.592529,712.879211 
	C631.964233,718.368408 634.164673,724.900635 632.826477,732.503906 
	C631.545471,739.782349 627.321594,744.532166 620.139160,746.335327 
	C612.419617,748.273438 604.652588,748.606445 597.152527,745.402405 
	C590.253479,742.455139 586.317017,735.447693 586.911377,728.079773 
	C587.123718,725.447144 588.256531,724.075073 590.897766,724.021240 
	C592.728394,723.983887 594.566956,724.079529 596.389099,723.943237 
	C600.411255,723.642578 602.515503,724.828430 602.449036,729.467468 
	C602.380554,734.250610 605.599060,736.612732 610.354492,736.205261 
	C614.887146,735.816772 616.886414,733.319397 616.780334,728.443237 
	C616.701416,724.816040 614.812744,722.215332 612.403870,719.789795 
	C608.259949,715.617065 602.917175,713.037964 598.503906,709.235535 
	C592.886353,704.395569 587.615906,699.412231 587.567017,691.102417 
	C587.507507,680.970398 591.637573,675.138855 601.421448,672.579102 
	C607.474731,670.995483 613.644348,671.046204 619.677917,672.666138 
	C628.185303,674.950134 632.778442,681.156799 632.900696,689.854614 
	C632.942078,692.797424 631.692444,694.180054 628.751953,694.121399 
	C626.422241,694.074829 624.090820,694.110962 621.304688,694.085938 
z"/>
<path fill="#000000" opacity="1.000000" stroke="none" 
	d="
M418.300385,702.896484 
	C419.644379,710.515198 420.950378,717.701050 422.256378,724.886841 
	C422.461884,724.902954 422.667389,724.919067 422.872894,724.935120 
	C425.414673,710.960205 427.936401,696.981689 430.504456,683.011597 
	C432.593628,671.646606 433.855072,670.874695 446.518616,673.416748 
	C446.469788,679.979675 444.337280,686.296326 443.134705,692.708862 
	C440.041901,709.200317 436.519897,725.610962 433.362274,742.090881 
	C432.710419,745.493042 431.233063,747.063782 427.766327,746.967896 
	C423.607819,746.852844 419.444000,746.932983 415.282501,746.919678 
	C412.850555,746.911865 411.235138,746.056824 410.707886,743.365051 
	C406.268127,720.700195 401.747101,698.051270 397.278198,675.392151 
	C397.158997,674.787903 397.352570,674.122009 397.413513,673.308167 
	C401.770752,672.140747 406.089111,672.799438 410.364166,672.763245 
	C412.848206,672.742249 413.168213,674.607605 413.507874,676.484558 
	C415.075409,685.147400 416.674561,693.804443 418.300385,702.896484 
z"/>
<path fill="#000000" opacity="1.000000" stroke="none" 
	d="
M474.033691,672.673462 
	C483.353241,672.677185 492.183044,672.840759 501.002960,672.616028 
	C505.201019,672.509033 506.057648,674.537292 506.019592,678.108704 
	C505.981689,681.662903 505.561768,684.368042 500.963409,684.206238 
	C495.475586,684.013123 489.972717,684.284973 484.480530,684.164673 
	C481.287537,684.094788 479.956970,685.380676 480.007202,688.577942 
	C480.255615,704.383118 477.974152,701.808228 492.979675,702.070374 
	C496.504272,702.131958 500.581024,701.198914 500.413330,707.216125 
	C500.235199,713.607178 500.236786,713.922546 493.731476,713.975342 
	C490.567871,714.000977 487.402893,714.026978 484.240326,713.963989 
	C481.300385,713.905518 479.987885,715.289368 480.024841,718.198486 
	C480.077698,722.360474 480.109467,726.525269 480.013397,730.685730 
	C479.938049,733.948547 481.533325,735.086792 484.616364,735.034607 
	C490.109894,734.941650 495.609833,735.143494 501.100372,734.986816 
	C505.735382,734.854553 505.978333,737.733643 506.072266,741.206360 
	C506.168274,744.754761 505.333679,746.973938 501.191223,746.936951 
	C490.201752,746.838806 479.210602,746.868530 468.220642,746.933960 
	C464.798218,746.954346 463.607758,745.441895 463.623535,742.060852 
	C463.723846,720.579834 463.734650,699.097778 463.633850,677.616760 
	C463.616852,673.996155 464.837433,672.332764 468.546326,672.659973 
	C470.198395,672.805664 471.874634,672.677673 474.033691,672.673462 
z"/>
<path fill="#000000" opacity="1.000000" stroke="none" 
	d="
M773.624878,693.343506 
	C775.764282,687.738281 777.929932,682.508545 779.735718,677.157349 
	C780.869629,673.796997 782.748291,672.245117 786.344421,672.645386 
	C789.593018,673.007019 792.947388,672.139343 796.046021,673.235107 
	C796.853760,675.263428 795.679321,676.679749 795.047485,678.151001 
	C790.781982,688.082581 786.616943,698.063232 782.062744,707.862244 
	C779.894531,712.527527 778.893311,717.184326 779.059570,722.297546 
	C779.275696,728.945679 779.033142,735.607361 779.111694,742.261780 
	C779.148438,745.376953 777.812073,746.671143 774.702576,746.945496 
	C763.311096,747.950562 762.102783,747.452271 762.863892,736.473206 
	C763.883789,721.760864 761.076111,708.227051 754.162231,695.239075 
	C750.527466,688.410828 747.926392,681.032288 744.664124,673.450317 
	C750.112976,672.124573 754.884888,672.670410 759.604004,672.843750 
	C762.108887,672.935852 762.440796,675.369080 763.150635,677.161682 
	C765.710083,683.625061 768.192505,690.118958 770.673828,696.523315 
	C772.919495,696.345215 772.723328,694.591614 773.624878,693.343506 
z"/>
<path fill="#000000" opacity="1.000000" stroke="none" 
	d="
M715.957153,738.847656 
	C715.573242,741.794250 717.208130,745.429932 713.913513,746.332825 
	C709.650635,747.500977 704.948853,747.835388 700.757385,745.845520 
	C698.985535,745.004456 699.723938,742.515869 699.720215,740.748108 
	C699.684448,723.784180 699.576782,706.818420 699.793884,689.857117 
	C699.849670,685.499695 698.503845,683.640076 694.119202,684.162720 
	C692.808044,684.318970 691.461121,684.185486 690.130737,684.168579 
	C684.158997,684.092834 683.745850,683.479675 683.750061,677.531189 
	C683.752686,673.846680 685.217590,672.592651 688.823181,672.629944 
	C701.461670,672.760925 714.103943,672.784790 726.741333,672.603394 
	C730.665710,672.547119 731.632874,674.283691 731.404114,677.739746 
	C731.199646,680.829529 732.104675,684.045776 727.018677,684.260559 
	C715.958740,684.727661 715.950562,684.937012 715.941284,695.958984 
	C715.929382,710.095703 715.948364,724.232361 715.957153,738.847656 
z"/>
<path fill="#000000" opacity="1.000000" stroke="none" 
	d="
M488.494507,249.822372 
	C492.590576,249.834747 496.278320,249.560196 499.900818,249.928146 
	C504.454407,250.390640 506.485291,248.389755 507.551605,244.181229 
	C508.797791,239.262894 510.152802,234.323502 512.938904,228.754852 
	C515.760437,233.829437 516.859314,238.668900 518.039001,243.308502 
	C519.331177,248.390671 521.704590,250.399033 527.075745,250.012726 
	C531.755554,249.676163 536.602966,249.181076 542.348389,250.709854 
	C538.523438,254.905396 534.301392,257.458862 530.335388,260.127625 
	C526.328186,262.824188 524.578674,265.305725 526.924744,270.278900 
	C529.067810,274.821838 530.049133,279.912811 530.543213,285.575226 
	C526.055542,282.366180 521.375854,279.388428 517.142761,275.872803 
	C513.921265,273.197266 511.600342,273.589142 508.459534,276.013458 
	C504.365906,279.173279 500.478424,282.795654 494.735321,285.396393 
	C495.730713,278.780182 497.813721,273.560791 499.649292,268.307892 
	C500.701935,265.295410 500.059662,263.421417 497.429138,261.624481 
	C492.699829,258.393860 488.186951,254.846405 483.584442,251.431915 
	C485.034851,249.264648 486.679871,250.052734 488.494507,249.822372 
z"/>
<path fill="#000000" opacity="1.000000" stroke="none" 
	d="
M667.323181,680.080444 
	C667.317566,700.404785 667.321411,720.237671 667.299255,740.070557 
	C667.291870,746.694336 667.128296,746.834167 660.665771,746.916321 
	C659.499329,746.931152 658.321045,746.810120 657.167908,746.934204 
	C652.399536,747.447388 650.779236,745.406677 650.827026,740.612427 
	C651.031128,720.114929 651.035767,699.613098 650.840759,679.115479 
	C650.793518,674.151184 652.352112,671.898560 657.442688,672.651733 
	C658.421265,672.796509 659.439575,672.668457 660.439575,672.672302 
	C667.223816,672.698181 667.223816,672.698730 667.323181,680.080444 
z"/>
<path fill="#000000" opacity="1.000000" stroke="none" 
	d="
M380.286316,730.993774 
	C380.277222,735.315735 380.207947,739.140198 380.281616,742.961914 
	C380.329529,745.447449 379.173828,746.650391 376.773285,746.812561 
	C376.275940,746.846130 375.778900,746.884521 375.281342,746.914612 
	C363.901154,747.603149 363.905853,747.603027 363.905457,736.302612 
	C363.904785,717.351929 363.886475,698.401184 363.898712,679.450500 
	C363.903046,672.735718 363.956482,672.656433 370.477417,672.685913 
	C381.476471,672.735657 380.236420,671.563599 380.278900,682.619629 
	C380.340210,698.577881 380.289612,714.536560 380.286316,730.993774 
z"/>
<path fill="#000000" opacity="1.000000" stroke="none" 
	d="
M428.020569,572.761963 
	C434.541840,578.726257 434.495239,581.076965 428.039581,586.673462 
	C418.641846,594.820435 404.589233,594.862122 395.580566,586.968323 
	C392.612976,584.367920 392.354431,582.080139 394.698914,578.899048 
	C402.139587,568.802917 415.576263,566.132935 428.020569,572.761963 
z"/>
<path fill="#000000" opacity="1.000000" stroke="none" 
	d="
M339.887024,361.195007 
	C329.690308,351.753479 327.699310,338.129272 334.588470,328.080353 
	C336.924469,324.672974 339.213684,324.004852 342.876343,326.179749 
	C353.674255,332.591797 357.992371,346.437225 352.525635,357.934387 
	C348.872986,365.616302 347.448822,366.018341 339.887024,361.195007 
z"/>
<path fill="#000000" opacity="1.000000" stroke="none" 
	d="
M416.522766,508.782227 
	C422.676025,522.508362 415.679535,534.611816 408.187225,539.586243 
	C405.104614,541.632935 402.961151,541.403625 400.509460,538.581848 
	C391.918823,528.694397 393.189880,512.724304 403.423279,504.118958 
	C408.656738,499.718140 410.684845,499.941345 414.598999,505.421661 
	C415.270874,506.362366 415.771790,507.425201 416.522766,508.782227 
z"/>
<path fill="#000000" opacity="1.000000" stroke="none" 
	d="
M551.444763,550.735352 
	C554.329468,545.391174 558.300537,541.863831 563.532166,539.545288 
	C567.277832,537.885193 569.566833,538.449097 571.488403,542.338074 
	C577.800598,555.113098 572.086792,570.549072 558.973816,576.055786 
	C555.202942,577.639221 553.120483,576.617493 551.446045,573.154297 
	C547.883484,565.785645 547.827942,558.462341 551.444763,550.735352 
z"/>
<path fill="#000000" opacity="1.000000" stroke="none" 
	d="
M381.687927,333.184692 
	C380.656281,331.477509 381.320007,330.381195 382.125916,329.234222 
	C390.731964,316.985565 412.266724,317.455688 420.608643,330.004333 
	C422.235199,332.451080 421.736725,334.106598 419.912598,336.118835 
	C409.290344,347.836090 392.259369,346.702820 381.687927,333.184692 
z"/>
<path fill="#000000" opacity="1.000000" stroke="none" 
	d="
M681.864746,483.621368 
	C688.511230,480.376343 694.914673,480.009064 701.532654,482.458282 
	C704.601440,483.593994 705.462158,485.367340 704.734680,488.599762 
	C701.530457,502.835938 687.258423,511.146545 673.367126,506.822113 
	C669.755066,505.697632 668.187256,504.069519 669.223938,499.953430 
	C671.049194,492.705933 675.257568,487.527557 681.864746,483.621368 
z"/>
<path fill="#000000" opacity="1.000000" stroke="none" 
	d="
M668.329468,294.697632 
	C678.098755,306.256104 677.229614,321.032990 666.661072,330.187317 
	C664.204956,332.314758 662.251343,332.414642 659.669983,330.418060 
	C648.225952,321.566528 648.889404,300.597656 660.863159,292.429260 
	C664.314819,290.074554 665.975647,292.702240 668.329468,294.697632 
z"/>
<path fill="#000000" opacity="1.000000" stroke="none" 
	d="
M616.171692,500.990173 
	C631.734253,506.828247 636.221008,527.204468 625.010986,538.955444 
	C622.732300,541.344055 620.765137,541.387634 618.053772,539.771057 
	C604.547974,531.719055 603.278320,510.652771 616.171692,500.990173 
z"/>
<path fill="#000000" opacity="1.000000" stroke="none" 
	d="
M675.554565,515.914062 
	C676.629883,516.132935 677.287170,516.252686 677.916138,516.458862 
	C690.144409,520.467773 690.949097,523.016479 682.375305,533.093506 
	C675.002380,541.759155 661.223938,543.134338 651.872498,537.113342 
	C649.174927,535.376465 648.466003,533.611572 649.737854,530.530518 
	C653.677979,520.985535 663.150024,515.388245 675.554565,515.914062 
z"/>
<path fill="#000000" opacity="1.000000" stroke="none" 
	d="
M344.092346,517.806519 
	C356.464539,513.354797 369.279083,517.722351 375.080841,528.093872 
	C378.139679,533.562012 377.556488,535.444214 371.951233,538.194397 
	C360.855042,543.638733 347.357788,539.982422 340.770569,529.747803 
	C336.405243,522.965515 336.711609,521.742676 344.092346,517.806519 
z"/>
<path fill="#000000" opacity="1.000000" stroke="none" 
	d="
M350.881897,507.232117 
	C336.780670,510.161926 324.258698,502.027771 321.207947,488.458099 
	C320.553009,485.544800 321.113953,483.858490 324.021545,482.607513 
	C337.723938,476.712433 354.914581,486.397064 356.994171,501.183472 
	C357.655579,505.886536 354.138153,506.075256 350.881897,507.232117 
z"/>
<path fill="#000000" opacity="1.000000" stroke="none" 
	d="
M618.075867,343.343628 
	C615.836975,342.498505 613.812805,342.016174 612.200989,340.924835 
	C601.593933,333.743103 601.630981,331.453796 611.645569,324.244110 
	C621.135193,317.412354 634.483704,319.370728 642.576294,327.751007 
	C644.942932,330.201752 645.426758,332.254761 642.972473,334.977051 
	C636.329285,342.345520 628.405396,345.709625 618.075867,343.343628 
z"/>
<path fill="#000000" opacity="1.000000" stroke="none" 
	d="
M638.457275,569.234253 
	C633.024963,568.141113 628.666321,565.917908 624.948486,562.377747 
	C622.924072,560.450073 622.801392,558.703796 624.295837,556.273926 
	C631.994019,543.757751 652.079285,541.972107 662.010742,552.920105 
	C663.961975,555.070984 663.982361,556.752869 662.320190,559.002136 
	C656.455444,566.938843 648.616638,570.209717 638.457275,569.234253 
z"/>
<path fill="#000000" opacity="1.000000" stroke="none" 
	d="
M622.248108,571.483276 
	C626.463501,573.748535 629.716858,576.480286 632.025452,580.317749 
	C633.248779,582.351318 633.013428,583.841309 631.437744,585.637024 
	C621.601990,596.846436 600.886292,594.481323 593.606079,581.339539 
	C592.272339,578.931824 592.857361,577.456055 594.620667,575.697937 
	C601.526306,568.812683 611.564209,567.141785 622.248108,571.483276 
z"/>
<path fill="#000000" opacity="1.000000" stroke="none" 
	d="
M474.185730,550.072205 
	C478.265686,558.252380 478.309692,566.047363 474.206482,573.864624 
	C472.703125,576.728699 470.783813,577.389709 467.679047,576.318481 
	C454.139954,571.646790 447.642548,553.866882 454.994751,541.560669 
	C456.697845,538.709961 458.736603,538.148132 461.670013,539.296875 
	C466.988434,541.379456 471.100464,544.834717 474.185730,550.072205 
z"/>
<path fill="#000000" opacity="1.000000" stroke="none" 
	d="
M446.075287,585.675964 
	C452.958008,583.961121 458.965668,584.872864 464.608398,588.569946 
	C466.927124,590.089172 467.627350,591.660095 466.671692,594.379211 
	C461.824585,608.169922 443.955536,614.371338 431.494049,606.604431 
	C428.702515,604.864441 428.026123,603.019531 429.372131,600.006042 
	C432.630493,592.710754 437.911255,587.852234 446.075287,585.675964 
z"/>
<path fill="#000000" opacity="1.000000" stroke="none" 
	d="
M402.448792,357.084015 
	C396.927521,372.310791 378.527344,377.966827 365.897766,368.626648 
	C363.922424,367.165802 361.605042,365.691010 363.151245,362.560944 
	C367.059235,354.649689 373.512268,349.959045 382.137665,348.991089 
	C390.010376,348.107574 397.280823,349.955566 402.448792,357.084015 
z"/>
<path fill="#000000" opacity="1.000000" stroke="none" 
	d="
M688.760193,358.729828 
	C688.393982,359.108673 688.279358,359.230042 688.152344,359.336609 
	C679.189575,366.853760 675.248962,365.627533 672.007568,354.313904 
	C668.925903,343.557678 673.680908,331.826874 682.977173,326.272766 
	C686.902527,323.927460 689.227478,324.819336 691.535583,328.432007 
	C697.426575,337.652588 696.585815,348.716309 688.760193,358.729828 
z"/>
<path fill="#000000" opacity="1.000000" stroke="none" 
	d="
M683.106079,383.483093 
	C685.098816,372.860626 690.750122,365.919861 700.783203,362.696289 
	C703.689575,361.762482 705.413635,362.592438 706.776611,365.328522 
	C713.249451,378.322693 705.811584,395.108093 691.804993,399.152313 
	C688.456421,400.119171 686.562012,399.333618 685.212769,396.029999 
	C683.604980,392.093597 682.571838,388.160980 683.106079,383.483093 
z"/>
<path fill="#000000" opacity="1.000000" stroke="none" 
	d="
M374.424683,311.995850 
	C374.480042,319.496887 371.832672,325.310577 366.700806,330.124756 
	C364.374481,332.307098 362.395050,332.566345 359.757172,330.533752 
	C348.206177,321.633209 348.027374,301.942841 359.429321,292.936127 
	C361.885681,290.995758 363.850372,291.272034 366.027374,293.197174 
	C371.547516,298.078674 374.652161,304.035583 374.424683,311.995850 
z"/>
<path fill="#000000" opacity="1.000000" stroke="none" 
	d="
M379.274353,512.327881 
	C372.518433,505.582764 372.462738,497.682678 375.104950,489.609161 
	C377.730530,481.586487 383.737549,476.863220 391.735199,474.554169 
	C394.310822,473.810516 395.274811,475.651215 396.299744,477.404510 
	C404.332977,491.146576 395.453796,509.780029 379.274353,512.327881 
z"/>
<path fill="#000000" opacity="1.000000" stroke="none" 
	d="
M574.778259,584.844543 
	C584.930725,586.131592 592.426392,590.478394 596.543823,599.820251 
	C597.974731,603.066833 597.191223,604.999023 594.198120,606.755371 
	C582.016663,613.903503 565.921875,608.811890 559.987244,595.984131 
	C558.139465,591.989929 558.914978,589.576050 562.855347,587.576965 
	C566.528870,585.713196 570.277954,584.770447 574.778259,584.844543 
z"/>
<path fill="#000000" opacity="1.000000" stroke="none" 
	d="
M340.852661,376.500488 
	C343.491211,383.334930 343.918518,389.709534 340.796051,396.211884 
	C339.237732,399.457031 337.241028,400.064056 334.004791,399.131195 
	C320.376495,395.203064 312.924194,378.536743 318.985596,365.571045 
	C320.265228,362.833832 321.895203,361.844940 324.869110,362.695343 
	C332.210083,364.794525 337.480530,369.233032 340.852661,376.500488 
z"/>
<path fill="#000000" opacity="1.000000" stroke="none" 
	d="
M668.192932,420.856476 
	C672.375000,425.953705 674.286926,431.469727 674.326172,437.709534 
	C674.343079,440.395233 673.060181,441.558868 670.601440,442.106506 
	C656.465332,445.255219 641.541016,432.994202 641.624634,418.444092 
	C641.643921,415.073395 643.005981,413.571655 646.128967,413.141479 
	C654.658081,411.966583 661.857910,414.641266 668.192932,420.856476 
z"/>
<path fill="#000000" opacity="1.000000" stroke="none" 
	d="
M707.691833,464.661316 
	C701.727600,470.842987 694.707520,473.020020 686.610413,472.304626 
	C683.411255,472.021973 681.939148,470.548370 681.707214,467.277740 
	C680.696106,453.022614 696.578552,439.494781 710.343628,442.916382 
	C713.698364,443.750275 714.386230,446.043121 714.136353,448.937073 
	C713.638550,454.702820 711.826294,459.970581 707.691833,464.661316 
z"/>
<path fill="#000000" opacity="1.000000" stroke="none" 
	d="
M371.780975,477.141937 
	C361.345428,480.179779 358.134857,479.703949 358.971954,466.585815 
	C359.657898,455.836731 367.928772,447.267639 378.228394,445.064178 
	C384.343628,443.755951 386.501831,445.294464 387.214813,451.470459 
	C388.488861,462.506836 383.051758,471.731842 371.780975,477.141937 
z"/>
<path fill="#000000" opacity="1.000000" stroke="none" 
	d="
M659.590576,451.391663 
	C665.821899,458.164520 668.621765,465.556152 666.537964,474.501953 
	C665.785156,477.733795 664.121155,478.854065 660.927673,478.687653 
	C646.638611,477.942902 635.494812,462.459686 639.300476,448.752869 
	C640.186951,445.560333 641.832336,444.370850 645.010071,444.751282 
	C650.459778,445.403748 655.269714,447.410797 659.590576,451.391663 
z"/>
<path fill="#000000" opacity="1.000000" stroke="none" 
	d="
M397.797791,564.952209 
	C385.428406,572.415649 371.877319,570.135132 364.068542,559.618286 
	C362.289124,557.221741 361.571350,555.238586 364.071503,552.664307 
	C372.969849,543.502380 389.458832,543.319702 398.404938,552.471680 
	C404.050964,558.247681 404.025116,559.250000 397.797791,564.952209 
z"/>
<path fill="#000000" opacity="1.000000" stroke="none" 
	d="
M344.251587,466.091034 
	C344.642273,470.587555 342.654938,472.123901 338.733002,472.362946 
	C324.714874,473.217407 313.491669,464.186096 311.863434,450.523743 
	C311.154846,444.578003 312.546600,442.909332 318.405487,442.680084 
	C332.300568,442.136322 342.151978,450.894348 344.251587,466.091034 
z"/>
<path fill="#000000" opacity="1.000000" stroke="none" 
	d="
M628.386841,497.174164 
	C625.954529,490.346252 626.522888,484.109802 629.388550,477.916962 
	C630.898376,474.654236 632.996094,474.100922 636.226807,475.145172 
	C649.935974,479.576172 656.739441,497.076874 649.668274,509.619263 
	C648.117920,512.369019 646.181458,512.897644 643.466797,511.965576 
	C636.243408,509.485474 631.345398,504.599609 628.386841,497.174164 
z"/>
<path fill="#000000" opacity="1.000000" stroke="none" 
	d="
M382.206604,427.851746 
	C376.306641,438.675385 367.697937,443.432709 356.868927,442.302399 
	C353.300507,441.929962 351.636322,440.442383 351.614319,436.601410 
	C351.537964,423.274750 364.030731,411.735413 377.618591,412.837097 
	C383.562286,413.319000 384.912842,414.867401 384.088257,420.763214 
	C383.769592,423.041443 382.944885,425.248901 382.206604,427.851746 
z"/>
<path fill="#000000" opacity="1.000000" stroke="none" 
	d="
M442.001587,556.766724 
	C441.014343,558.154480 440.221100,559.216858 439.435822,560.285095 
	C437.111237,563.447388 434.638489,563.617920 431.433380,561.260803 
	C419.828522,552.726379 418.176025,535.151001 428.052216,524.758789 
	C430.318329,522.374268 432.307892,522.318848 434.984955,524.117188 
	C445.063812,530.888000 448.073944,544.072937 442.001587,556.766724 
z"/>
<path fill="#000000" opacity="1.000000" stroke="none" 
	d="
M588.822876,562.442139 
	C577.229919,550.595703 578.227905,533.151550 590.537415,524.397278 
	C593.575562,522.236633 595.668640,522.450745 598.193970,525.196960 
	C608.070312,535.937256 605.930725,554.006531 593.696472,561.791321 
	C592.309631,562.673828 590.909851,563.743652 588.822876,562.442139 
z"/>
<path fill="#000000" opacity="1.000000" stroke="none" 
	d="
M701.532166,404.201538 
	C713.650940,400.288971 716.458313,402.526642 715.257629,414.697998 
	C714.171021,425.714050 703.402344,435.724274 692.364014,436.122620 
	C689.203247,436.236725 688.031982,434.592682 687.299683,431.837402 
	C684.459167,421.149994 690.002014,410.058624 701.532166,404.201538 
z"/>
<path fill="#000000" opacity="1.000000" stroke="none" 
	d="
M314.325806,402.364075 
	C332.442322,402.436676 341.635986,418.413544 338.789124,431.419525 
	C337.918884,435.395203 336.015137,436.557709 332.138306,435.926544 
	C318.521240,433.709686 309.532776,422.663513 310.796875,409.247742 
	C311.034790,406.722595 310.902435,403.788574 314.325806,402.364075 
z"/>
<path fill="#000000" opacity="1.000000" stroke="none" 
	d="
M657.054504,370.297424 
	C644.019531,377.112305 630.783875,370.525024 625.035828,361.193878 
	C622.800232,357.564636 623.469727,355.222046 626.930420,352.943024 
	C637.682495,345.862213 651.482361,347.880371 659.622070,357.893066 
	C664.752930,364.204529 664.458618,365.827087 657.054504,370.297424 
z"/>
<path fill="#000000" opacity="1.000000" stroke="none" 
	d="
M375.256775,380.158875 
	C378.836212,380.184631 381.880432,380.817230 384.920166,381.740326 
	C389.550415,383.146332 390.161163,385.972229 388.696228,390.155609 
	C384.290009,402.738708 370.237976,409.618164 357.614563,405.228546 
	C352.554779,403.469086 351.741760,401.776520 353.670593,396.594269 
	C357.328857,386.765411 364.526764,381.460510 375.256775,380.158875 
z"/>
<path fill="#000000" opacity="1.000000" stroke="none" 
	d="
M670.876343,393.407471 
	C674.786072,402.731506 673.223877,405.349945 663.583374,406.278534 
	C651.087830,407.482147 640.554077,400.610779 636.951782,389.216217 
	C635.664368,385.143829 636.861938,383.132690 640.792664,381.743439 
	C652.413086,377.636414 663.400391,381.694427 670.876343,393.407471 
z"/>
<path fill="#000000" opacity="1.000000" stroke="none" 
	d="
M560.405884,297.384583 
	C559.048706,298.329437 558.113220,299.382263 556.317200,299.154480 
	C555.266846,296.276520 557.030090,293.770050 557.917847,291.320007 
	C559.218323,287.730743 558.501343,285.351257 555.319702,283.284882 
	C553.037231,281.802521 550.496521,280.490173 548.608582,277.658722 
	C551.781372,276.233978 554.790771,276.797882 557.623535,276.910065 
	C561.213257,277.052155 563.100891,275.720428 564.102356,272.248352 
	C564.856079,269.635468 565.076233,266.651031 567.433411,264.581177 
	C569.607666,266.127808 570.032043,268.564484 570.466064,270.714478 
	C571.491455,275.793640 574.375366,277.512390 579.336121,276.895203 
	C581.409485,276.637268 583.636902,276.392273 585.948608,277.357635 
	C585.646484,280.364777 582.872009,281.152222 581.005981,282.278717 
	C576.457764,285.024414 575.386230,288.358154 577.696655,293.099701 
	C578.610779,294.975800 578.994080,297.110535 579.725769,299.471832 
	C577.099487,299.809662 575.883484,298.315643 574.521729,297.321320 
	C567.712769,292.349640 567.725952,292.331573 560.405884,297.384583 
z"/>
<path fill="#000000" opacity="1.000000" stroke="none" 
	d="
M449.599670,276.813934 
	C453.006104,277.051086 453.985718,275.141144 454.783051,272.713196 
	C455.747864,269.775208 456.122345,266.542175 458.602295,263.780731 
	C459.283569,265.242462 459.905121,266.384125 460.362518,267.588165 
	C463.747833,276.499176 463.737976,276.491943 473.461609,276.838074 
	C474.567078,276.877441 475.665039,277.127319 477.290558,277.352020 
	C475.427216,280.875275 472.226196,282.153748 469.621368,283.910370 
	C467.033966,285.655243 466.635468,287.440704 467.641968,290.203400 
	C468.736176,293.206848 470.153107,296.202698 470.237854,299.782318 
	C467.201019,299.334595 465.430481,297.643524 463.844788,296.114746 
	C459.927734,292.338287 456.462799,292.581665 452.713593,296.280029 
	C451.223175,297.750244 449.588776,299.278137 446.987152,299.686096 
	C446.006409,296.838013 447.675446,294.492706 448.601562,292.262726 
	C450.404297,287.921936 449.366211,285.045746 445.407532,282.666138 
	C443.382629,281.448944 441.079315,280.291595 439.263428,276.822754 
	C443.073730,276.822754 446.122345,276.822754 449.599670,276.813934 
z"/>
<path fill="#000000" opacity="1.000000" stroke="none" 
	d="
M516.125488,578.368103 
	C521.865906,581.577576 523.673401,585.225403 522.294800,590.218323 
	C521.079895,594.618408 517.298828,597.392517 512.672363,597.278198 
	C508.207886,597.167786 504.522064,594.128723 503.437408,589.663574 
	C501.704224,582.528687 507.674744,576.976379 516.125488,578.368103 
z"/>
<path fill="#000000" opacity="1.000000" stroke="none" 
	d="
M520.960449,784.968262 
	C521.038696,782.171936 520.953613,779.824219 521.231750,777.520325 
	C521.768433,773.075562 524.530396,771.300049 528.871643,771.475342 
	C533.076172,771.645081 535.392517,773.589355 535.453186,777.924988 
	C535.513672,782.245544 535.708008,786.568054 535.629333,790.885742 
	C535.548767,795.306763 532.991333,797.633240 528.691345,797.789368 
	C524.393738,797.945435 521.744568,795.755737 521.194519,791.422180 
	C520.944031,789.448914 521.028687,787.433105 520.960449,784.968262 
M526.509338,788.044067 
	C526.725647,789.685486 525.762329,791.834595 529.304749,792.735718 
	C530.230225,787.237976 530.193054,782.024048 529.195435,775.601196 
	C525.386292,779.845154 527.038940,783.806946 526.509338,788.044067 
z"/>
<path fill="#000000" opacity="1.000000" stroke="none" 
	d="
M454.618713,776.191528 
	C454.701263,773.856934 454.664703,771.986389 457.283569,771.763000 
	C459.638672,771.562073 461.027863,772.436218 461.641968,774.783875 
	C462.351074,777.494629 463.263092,780.152283 464.463715,784.058716 
	C464.463715,780.197876 464.374023,777.569824 464.498840,774.951904 
	C464.568787,773.484741 464.742462,771.808533 466.923431,771.940552 
	C468.992981,772.065735 469.176392,773.630920 469.189148,775.162659 
	C469.240234,781.304626 469.245209,787.447021 469.236786,793.589294 
	C469.234436,795.305786 469.113556,797.005127 466.792908,797.189270 
	C464.834412,797.344666 463.601288,796.379333 463.053833,794.601501 
	C461.984924,791.130249 461.011414,787.629639 459.264679,784.160034 
	C459.264679,787.493225 459.283386,790.826599 459.255768,794.159546 
	C459.244141,795.564697 458.955872,796.884338 457.194092,797.002014 
	C455.134583,797.139648 454.697235,795.737183 454.685089,794.098328 
	C454.642120,788.288086 454.634277,782.477600 454.618713,776.191528 
z"/>
<path fill="#000000" opacity="1.000000" stroke="none" 
	d="
M640.054688,774.073425 
	C640.378479,774.566956 640.522766,774.711182 640.527954,774.860291 
	C640.757263,781.514709 640.999817,788.168823 641.174316,794.824768 
	C641.217224,796.460510 640.213318,797.223022 638.614624,797.158813 
	C636.770081,797.084778 636.127441,795.898804 635.793945,794.251282 
	C635.339783,792.007385 636.779419,789.244690 634.062317,787.346069 
	C631.487854,788.884583 632.615112,791.283203 632.392578,793.236816 
	C632.182312,795.082397 632.378662,797.155212 629.679565,797.093872 
	C627.083313,797.034973 626.995178,794.999634 626.968628,793.141418 
	C626.899658,788.309143 626.896179,783.475525 626.906860,778.642578 
	C626.922180,771.715454 627.377014,771.335144 634.366821,771.672668 
	C636.437195,771.772705 638.329895,772.153503 640.054688,774.073425 
M634.025757,776.644043 
	C631.382996,778.140747 632.445801,779.849609 633.564026,781.966248 
	C636.204285,780.367432 636.282104,778.740112 634.025757,776.644043 
z"/>
<path fill="#000000" opacity="1.000000" stroke="none" 
	d="
M502.093445,794.520691 
	C500.169983,788.453064 500.678955,782.632812 501.300568,776.873413 
	C501.696472,773.205139 504.281830,771.485413 507.934113,771.458862 
	C511.165497,771.435303 513.963623,772.281555 514.912476,775.798584 
	C515.375854,777.516113 515.908691,779.617615 513.520386,780.446350 
	C511.588318,781.116821 510.395844,780.062134 509.807678,778.177490 
	C509.626678,777.597412 509.175476,777.101746 508.833710,776.544067 
	C505.407684,779.203491 505.371002,789.712769 508.792633,792.522705 
	C510.400604,790.476135 509.952789,788.563293 508.676025,786.635864 
	C507.731812,785.210388 507.387848,783.682739 509.279846,782.941650 
	C511.100830,782.228455 513.260925,781.613220 514.781250,783.547119 
	C516.610229,785.873657 515.085022,795.099670 512.521851,796.506531 
	C508.823547,798.536499 505.202271,798.544495 502.093445,794.520691 
z"/>
<path fill="#000000" opacity="1.000000" stroke="none" 
	d="
M593.331482,786.838623 
	C591.722168,789.185120 592.541748,791.571655 592.331665,793.848633 
	C592.163330,795.673035 591.834717,797.197998 589.560059,797.143188 
	C587.346069,797.089844 586.824280,795.581787 586.818237,793.756897 
	C586.797913,787.604980 586.796631,781.452881 586.825684,775.301025 
	C586.833984,773.544128 587.132812,771.914124 589.432800,771.829529 
	C592.084839,771.731934 592.126770,773.578125 592.345581,775.498413 
	C592.572815,777.492737 591.393738,779.870300 593.848267,781.537109 
	C596.704834,780.495728 595.530701,777.977295 595.775269,776.079651 
	C596.028137,774.117188 595.651123,771.781189 598.672119,771.875366 
	C601.703674,771.969849 601.279480,774.375671 601.297302,776.286987 
	C601.351562,782.106201 601.312378,787.926392 601.295349,793.746155 
	C601.290161,795.515320 601.064148,797.166138 598.710632,797.154236 
	C596.499756,797.143066 596.248901,795.577942 595.799438,793.845886 
	C595.173340,791.433350 597.639038,788.044495 593.331482,786.838623 
z"/>
<path fill="#000000" opacity="1.000000" stroke="none" 
	d="
M416.503845,783.047607 
	C417.871643,785.853088 417.340271,788.546692 417.405212,791.175537 
	C417.512054,795.500183 414.998138,797.602478 410.917114,797.722412 
	C406.887360,797.840942 404.047119,795.903198 403.812073,791.693115 
	C403.534698,786.725098 403.549255,781.718018 403.824036,776.749329 
	C404.038483,772.871765 406.893036,771.425598 410.405701,771.386047 
	C413.831390,771.347595 416.731415,772.427429 417.321381,776.363770 
	C417.551941,777.901978 418.231476,779.881409 415.882599,780.509216 
	C413.828705,781.058167 412.829926,779.956055 412.451447,777.976929 
	C412.346710,777.429138 411.700775,776.984863 411.285492,776.471252 
	C408.660522,779.245422 408.355438,788.234253 410.709442,792.569458 
	C413.320038,791.552429 412.885803,789.501343 412.179016,787.680969 
	C410.134277,782.414307 410.295990,782.157532 416.503845,783.047607 
z"/>
<path fill="#000000" opacity="1.000000" stroke="none" 
	d="
M385.588745,779.682495 
	C386.471252,776.481323 385.193024,772.493530 389.657440,771.783020 
	C391.945343,771.418884 393.881561,771.852173 394.371033,774.816162 
	C395.424011,781.192444 396.691772,787.533142 397.873047,793.888184 
	C398.132568,795.284302 398.175934,796.658081 396.444305,797.067810 
	C395.094757,797.387085 393.627472,797.281860 393.053497,795.761414 
	C391.392120,791.360474 389.622009,790.695862 387.542297,795.460022 
	C386.887787,796.959290 385.765320,797.377319 384.320404,797.011047 
	C382.561340,796.565125 382.635834,795.043884 382.861603,793.774475 
	C383.674286,789.205139 384.631653,784.661438 385.588745,779.682495 
z"/>
<path fill="#000000" opacity="1.000000" stroke="none" 
	d="
M572.278076,796.206055 
	C568.405090,798.372864 564.918335,798.650696 561.969299,795.459045 
	C560.435608,793.799133 559.466431,791.355530 561.425354,789.683411 
	C563.565186,787.856750 564.905884,789.794067 565.918823,791.724731 
	C566.155518,792.175842 566.952087,792.333252 567.719299,792.749634 
	C569.460327,790.204529 568.269226,788.611084 566.607910,787.061279 
	C565.032043,785.591187 563.276917,784.234253 562.018738,782.520569 
	C559.967529,779.726624 559.706299,776.482544 561.916748,773.726013 
	C564.327637,770.719543 567.763733,770.844604 571.061096,772.096069 
	C573.065063,772.856750 574.139404,774.579895 574.176941,776.791382 
	C574.195068,777.857422 573.812195,778.749329 572.677917,779.097595 
	C570.681091,779.710571 569.631287,778.402954 568.522949,777.108887 
	C568.259460,776.801208 567.675293,776.768127 566.986694,776.516785 
	C565.304321,780.302856 568.541199,781.525757 570.317505,783.265869 
	C574.977417,787.830444 575.550354,790.623657 572.278076,796.206055 
z"/>
<path fill="#000000" opacity="1.000000" stroke="none" 
	d="
M620.718689,773.059082 
	C621.106262,775.814270 619.559570,776.331177 617.741943,776.223999 
	C613.993103,776.002930 613.007874,777.715759 613.989258,780.960754 
	C615.532043,782.639099 619.446106,780.446106 619.305420,784.215088 
	C619.182251,787.515686 615.582397,785.411133 614.098022,787.198669 
	C613.543335,788.750793 613.377808,790.489502 614.093506,792.051697 
	C616.146118,793.893799 620.892517,791.339783 620.605774,795.138733 
	C620.302368,799.158569 616.065308,796.859558 613.594727,797.291748 
	C609.246521,798.052185 607.653687,795.937378 607.920288,791.626038 
	C608.196472,787.161255 608.189148,782.652466 607.912903,778.187195 
	C607.616028,773.388367 609.120117,770.863037 614.333984,771.655212 
	C616.411194,771.970825 618.676819,771.094727 620.718689,773.059082 
z"/>
<path fill="#000000" opacity="1.000000" stroke="none" 
	d="
M482.786377,792.504272 
	C484.309326,792.760376 485.474121,792.831848 486.626099,792.994446 
	C487.911346,793.175903 488.837219,793.830200 488.789886,795.256348 
	C488.740692,796.738831 487.664978,797.207336 486.407501,797.249756 
	C484.245636,797.322632 482.078979,797.254944 479.917297,797.331177 
	C477.205994,797.426697 475.911377,796.169556 475.919312,793.466125 
	C475.936401,787.638184 475.980682,781.809387 475.902222,775.982422 
	C475.858917,772.768860 477.315216,771.414856 480.471008,771.667480 
	C481.628906,771.760193 482.814606,771.561279 483.963531,771.697815 
	C485.776245,771.913330 488.548828,770.861755 488.757050,773.801086 
	C488.977753,776.917358 486.142303,776.106323 484.329926,776.269592 
	C482.586426,776.426697 481.489777,776.996643 481.453430,778.934265 
	C481.417786,780.835754 482.403839,781.614197 484.181458,781.744507 
	C485.755615,781.859924 487.278046,782.178772 487.130890,784.272888 
	C487.003174,786.090393 485.494171,786.003052 484.208557,786.329468 
	C480.313049,787.318604 480.904388,789.721069 482.786377,792.504272 
z"/>
<path fill="#000000" opacity="1.000000" stroke="none" 
	d="
M551.153259,786.177063 
	C548.189697,786.294983 547.276611,787.705994 547.403381,790.135376 
	C547.542786,792.804443 549.444275,792.753723 551.315002,792.849548 
	C553.041504,792.937866 554.941406,793.099731 554.763855,795.423340 
	C554.606445,797.484497 552.707764,797.247253 551.257507,797.312683 
	C549.595581,797.387695 547.922424,797.242371 546.263428,797.344666 
	C543.003113,797.545837 541.794006,795.929077 541.830139,792.842651 
	C541.894531,787.347656 541.942322,781.848450 541.794617,776.356445 
	C541.703247,772.957031 543.014465,771.374084 546.481445,771.665710 
	C547.804260,771.776978 549.152039,771.589233 550.474976,771.699402 
	C552.173523,771.840759 554.606628,771.129578 554.772095,773.822632 
	C554.942444,776.596313 552.518311,776.133545 550.784363,776.280518 
	C549.242065,776.411072 547.698853,776.433838 547.494080,778.500000 
	C547.291748,780.542480 548.185730,781.470459 550.256958,781.797668 
	C553.347351,782.285828 554.673584,783.608154 551.153259,786.177063 
z"/>
<path fill="#000000" opacity="1.000000" stroke="none" 
	d="
M647.761841,793.763184 
	C647.730042,787.640808 647.844788,781.992615 647.672363,776.353271 
	C647.568420,772.957031 648.811829,771.349915 652.286499,771.674561 
	C653.108765,771.751404 653.968689,771.547302 654.770874,771.693726 
	C656.833496,772.070068 660.144653,770.437622 660.518433,773.756104 
	C660.896240,777.110168 657.606995,776.017090 655.697998,776.312927 
	C654.085266,776.562805 653.384094,777.369751 653.376526,778.954651 
	C653.369080,780.509827 653.985901,781.467712 655.611938,781.686829 
	C657.239136,781.905945 659.218018,781.885864 659.022644,784.306763 
	C658.853760,786.398438 656.980164,786.136475 655.571960,786.337646 
	C653.223206,786.673218 653.336426,788.387207 653.355347,790.084167 
	C653.376343,791.960022 654.442566,792.655701 656.192261,792.820312 
	C658.057434,792.995850 660.894226,792.528503 660.458313,795.511597 
	C660.061951,798.223267 657.214722,797.458435 655.458435,797.253113 
	C652.720581,796.933044 648.754578,799.184875 647.761841,793.763184 
z"/>
<path fill="#000000" opacity="1.000000" stroke="none" 
	d="
M369.682617,786.046021 
	C368.962006,782.061218 371.829315,777.496643 366.173828,775.385742 
	C364.731201,774.847290 364.884644,772.089722 367.318054,771.857178 
	C370.617157,771.541870 373.968506,771.748291 377.296967,771.778442 
	C378.373901,771.788208 379.259064,772.247009 379.499573,773.410034 
	C379.771729,774.726013 379.345428,775.849426 377.964752,776.084290 
	C375.175598,776.558533 375.285736,778.571472 375.285736,780.620605 
	C375.285706,784.951050 375.278198,789.281677 375.233826,793.611816 
	C375.215973,795.353271 375.004944,797.043335 372.688324,797.150208 
	C370.094666,797.269958 369.738953,795.512329 369.715881,793.523438 
	C369.688873,791.191956 369.692535,788.859985 369.682617,786.046021 
z"/>
<path fill="#000000" opacity="1.000000" stroke="none" 
	d="
M435.819702,793.678101 
	C436.823120,796.136047 435.872803,797.163635 433.760986,797.256653 
	C431.765045,797.344727 429.762024,797.262329 427.764557,797.328369 
	C425.022552,797.419006 423.816132,796.078552 423.826813,793.401978 
	C423.850830,787.403137 423.820953,781.403992 423.839386,775.405090 
	C423.845581,773.391357 424.294189,771.704041 426.883667,771.863708 
	C429.295288,772.012451 429.261139,773.804321 429.286011,775.483398 
	C429.335388,778.815674 429.621368,782.184265 429.245941,785.473572 
	C428.677795,790.450989 429.906555,793.573669 435.819702,793.678101 
z"/>
<path fill="#000000" opacity="1.000000" stroke="none" 
	d="
M447.250122,772.916382 
	C448.584717,780.070251 447.839142,786.888428 447.891754,793.686401 
	C447.904816,795.374878 447.555725,797.092712 445.244598,797.179871 
	C442.659637,797.277283 442.207031,795.460327 442.210449,793.546265 
	C442.221436,787.404236 442.301300,781.260620 442.477692,775.121216 
	C442.568695,771.953552 444.131470,770.945007 447.250122,772.916382 
z"/>
</svg>